<mxfile host="Electron" modified="2023-09-15T08:02:34.493Z" agent="Mozilla/5.0 (Macintosh; Intel Mac OS X 10_15_7) AppleWebKit/537.36 (KHTML, like Gecko) draw.io/21.7.5 Chrome/114.0.5735.289 Electron/25.8.1 Safari/537.36" etag="Nx6VL_o7fiJvkZ2TMd5P" version="21.7.5" type="device">
  <diagram name="第 1 页" id="ybC7cfOOPAfj8pK4ux7C">
    <mxGraphModel dx="2896" dy="1924" grid="1" gridSize="10" guides="1" tooltips="1" connect="1" arrows="1" fold="1" page="1" pageScale="1" pageWidth="827" pageHeight="1169" math="0" shadow="0">
      <root>
        <mxCell id="0" />
        <mxCell id="1" parent="0" />
        <mxCell id="3dXfLGT3kzOmMEB1B4s6-86" value="" style="rounded=0;whiteSpace=wrap;html=1;" vertex="1" parent="1">
          <mxGeometry x="310" y="940" width="670" height="120" as="geometry" />
        </mxCell>
        <mxCell id="3dXfLGT3kzOmMEB1B4s6-88" style="edgeStyle=orthogonalEdgeStyle;rounded=0;orthogonalLoop=1;jettySize=auto;html=1;entryX=0.5;entryY=1;entryDx=0;entryDy=0;" edge="1" parent="1" source="3dXfLGT3kzOmMEB1B4s6-87" target="3dXfLGT3kzOmMEB1B4s6-86">
          <mxGeometry relative="1" as="geometry" />
        </mxCell>
        <mxCell id="3dXfLGT3kzOmMEB1B4s6-87" value="" style="rounded=0;whiteSpace=wrap;html=1;" vertex="1" parent="1">
          <mxGeometry x="255" y="1110" width="780" height="110" as="geometry" />
        </mxCell>
        <mxCell id="3dXfLGT3kzOmMEB1B4s6-66" style="edgeStyle=orthogonalEdgeStyle;rounded=0;orthogonalLoop=1;jettySize=auto;html=1;entryX=0;entryY=0.5;entryDx=0;entryDy=0;" edge="1" parent="1" source="3dXfLGT3kzOmMEB1B4s6-1" target="3dXfLGT3kzOmMEB1B4s6-4">
          <mxGeometry relative="1" as="geometry" />
        </mxCell>
        <mxCell id="3dXfLGT3kzOmMEB1B4s6-1" value="&lt;div style=&quot;background-color: rgb(255, 255, 255); font-family: Menlo, Monaco, &amp;quot;Courier New&amp;quot;, monospace; line-height: 18px;&quot;&gt;State::ProcessBatch&lt;/div&gt;" style="rounded=0;whiteSpace=wrap;html=1;" vertex="1" parent="1">
          <mxGeometry x="270" y="700" width="166" height="60" as="geometry" />
        </mxCell>
        <mxCell id="3dXfLGT3kzOmMEB1B4s6-3" style="edgeStyle=orthogonalEdgeStyle;rounded=0;orthogonalLoop=1;jettySize=auto;html=1;entryX=0.5;entryY=0;entryDx=0;entryDy=0;exitX=0.5;exitY=1;exitDx=0;exitDy=0;" edge="1" parent="1" source="3dXfLGT3kzOmMEB1B4s6-2" target="3dXfLGT3kzOmMEB1B4s6-49">
          <mxGeometry relative="1" as="geometry">
            <mxPoint x="620" y="560" as="targetPoint" />
          </mxGeometry>
        </mxCell>
        <mxCell id="3dXfLGT3kzOmMEB1B4s6-2" value="&lt;div style=&quot;background-color: rgb(255, 255, 255); font-family: Menlo, Monaco, &amp;quot;Courier New&amp;quot;, monospace; line-height: 18px;&quot;&gt;State::ExecuteBatch&lt;/div&gt;" style="rounded=0;whiteSpace=wrap;html=1;" vertex="1" parent="1">
          <mxGeometry x="100" y="325" width="190" height="60" as="geometry" />
        </mxCell>
        <mxCell id="3dXfLGT3kzOmMEB1B4s6-67" style="edgeStyle=orthogonalEdgeStyle;rounded=0;orthogonalLoop=1;jettySize=auto;html=1;entryX=0.5;entryY=1;entryDx=0;entryDy=0;" edge="1" parent="1" source="3dXfLGT3kzOmMEB1B4s6-4" target="3dXfLGT3kzOmMEB1B4s6-49">
          <mxGeometry relative="1" as="geometry" />
        </mxCell>
        <mxCell id="3dXfLGT3kzOmMEB1B4s6-4" value="&lt;div style=&quot;background-color: rgb(255, 255, 255); font-family: Menlo, Monaco, &amp;quot;Courier New&amp;quot;, monospace; line-height: 18px;&quot;&gt;State::sendBatchRequestToExecutor&lt;/div&gt;" style="rounded=0;whiteSpace=wrap;html=1;" vertex="1" parent="1">
          <mxGeometry x="470" y="700" width="250" height="60" as="geometry" />
        </mxCell>
        <mxCell id="3dXfLGT3kzOmMEB1B4s6-99" style="edgeStyle=orthogonalEdgeStyle;rounded=0;orthogonalLoop=1;jettySize=auto;html=1;" edge="1" parent="1" source="3dXfLGT3kzOmMEB1B4s6-5" target="3dXfLGT3kzOmMEB1B4s6-49">
          <mxGeometry relative="1" as="geometry" />
        </mxCell>
        <mxCell id="3dXfLGT3kzOmMEB1B4s6-5" value="&lt;div style=&quot;background-color: rgb(255, 255, 255); font-family: Menlo, Monaco, &amp;quot;Courier New&amp;quot;, monospace; line-height: 18px;&quot;&gt;State::DebugTransaction&lt;/div&gt;" style="rounded=0;whiteSpace=wrap;html=1;" vertex="1" parent="1">
          <mxGeometry x="670" y="330" width="250" height="60" as="geometry" />
        </mxCell>
        <mxCell id="3dXfLGT3kzOmMEB1B4s6-125" style="edgeStyle=orthogonalEdgeStyle;rounded=0;orthogonalLoop=1;jettySize=auto;html=1;entryX=1;entryY=0.5;entryDx=0;entryDy=0;" edge="1" parent="1" source="3dXfLGT3kzOmMEB1B4s6-6" target="3dXfLGT3kzOmMEB1B4s6-4">
          <mxGeometry relative="1" as="geometry" />
        </mxCell>
        <mxCell id="3dXfLGT3kzOmMEB1B4s6-6" value="&lt;div style=&quot;background-color: rgb(255, 255, 255); font-family: Menlo, Monaco, &amp;quot;Courier New&amp;quot;, monospace; line-height: 18px;&quot;&gt;State::internalProcessUnsignedTransaction&lt;/div&gt;" style="rounded=0;whiteSpace=wrap;html=1;" vertex="1" parent="1">
          <mxGeometry x="1320" y="660" width="370" height="40" as="geometry" />
        </mxCell>
        <mxCell id="3dXfLGT3kzOmMEB1B4s6-128" style="edgeStyle=orthogonalEdgeStyle;rounded=0;orthogonalLoop=1;jettySize=auto;html=1;" edge="1" parent="1" source="3dXfLGT3kzOmMEB1B4s6-7" target="3dXfLGT3kzOmMEB1B4s6-68">
          <mxGeometry relative="1" as="geometry" />
        </mxCell>
        <mxCell id="3dXfLGT3kzOmMEB1B4s6-7" value="&lt;div style=&quot;background-color: rgb(255, 255, 255); font-family: Menlo, Monaco, &amp;quot;Courier New&amp;quot;, monospace; line-height: 18px;&quot;&gt;State::EstimateGas&lt;/div&gt;" style="rounded=0;whiteSpace=wrap;html=1;" vertex="1" parent="1">
          <mxGeometry x="1237.25" y="860" width="180" height="60" as="geometry" />
        </mxCell>
        <mxCell id="3dXfLGT3kzOmMEB1B4s6-20" style="edgeStyle=orthogonalEdgeStyle;rounded=0;orthogonalLoop=1;jettySize=auto;html=1;" edge="1" parent="1" source="3dXfLGT3kzOmMEB1B4s6-8" target="3dXfLGT3kzOmMEB1B4s6-2">
          <mxGeometry relative="1" as="geometry" />
        </mxCell>
        <mxCell id="3dXfLGT3kzOmMEB1B4s6-8" value="&lt;div style=&quot;background-color: rgb(255, 255, 255); font-family: Menlo, Monaco, &amp;quot;Courier New&amp;quot;, monospace; line-height: 18px;&quot;&gt;dbManager::GetWIPBatch&lt;/div&gt;" style="rounded=0;whiteSpace=wrap;html=1;" vertex="1" parent="1">
          <mxGeometry x="-60" y="170" width="190" height="60" as="geometry" />
        </mxCell>
        <mxCell id="3dXfLGT3kzOmMEB1B4s6-63" style="edgeStyle=orthogonalEdgeStyle;rounded=0;orthogonalLoop=1;jettySize=auto;html=1;entryX=0.5;entryY=0;entryDx=0;entryDy=0;" edge="1" parent="1" source="3dXfLGT3kzOmMEB1B4s6-9" target="3dXfLGT3kzOmMEB1B4s6-2">
          <mxGeometry relative="1" as="geometry" />
        </mxCell>
        <mxCell id="3dXfLGT3kzOmMEB1B4s6-9" value="&lt;div style=&quot;background-color: rgb(255, 255, 255); font-family: Menlo, Monaco, &amp;quot;Courier New&amp;quot;, monospace; line-height: 18px;&quot;&gt;ClientSynchronizer::processSequenceBatches&lt;/div&gt;" style="rounded=0;whiteSpace=wrap;html=1;" vertex="1" parent="1">
          <mxGeometry x="224" y="180" width="306" height="60" as="geometry" />
        </mxCell>
        <mxCell id="3dXfLGT3kzOmMEB1B4s6-15" style="edgeStyle=orthogonalEdgeStyle;rounded=0;orthogonalLoop=1;jettySize=auto;html=1;entryX=0;entryY=0.5;entryDx=0;entryDy=0;exitX=0.5;exitY=1;exitDx=0;exitDy=0;" edge="1" parent="1" source="3dXfLGT3kzOmMEB1B4s6-10" target="3dXfLGT3kzOmMEB1B4s6-8">
          <mxGeometry relative="1" as="geometry" />
        </mxCell>
        <mxCell id="3dXfLGT3kzOmMEB1B4s6-10" value="&lt;div style=&quot;background-color: rgb(255, 255, 255); font-family: Menlo, Monaco, &amp;quot;Courier New&amp;quot;, monospace; line-height: 18px;&quot;&gt;finalizer::Start&lt;/div&gt;" style="rounded=0;whiteSpace=wrap;html=1;" vertex="1" parent="1">
          <mxGeometry x="-260" y="60" width="190" height="60" as="geometry" />
        </mxCell>
        <mxCell id="3dXfLGT3kzOmMEB1B4s6-19" style="edgeStyle=orthogonalEdgeStyle;rounded=0;orthogonalLoop=1;jettySize=auto;html=1;" edge="1" parent="1" source="3dXfLGT3kzOmMEB1B4s6-11" target="3dXfLGT3kzOmMEB1B4s6-8">
          <mxGeometry relative="1" as="geometry" />
        </mxCell>
        <mxCell id="3dXfLGT3kzOmMEB1B4s6-11" value="&lt;div style=&quot;background-color: rgb(255, 255, 255); font-family: Menlo, Monaco, &amp;quot;Courier New&amp;quot;, monospace; line-height: 18px;&quot;&gt;finalizer::syncWithState&lt;/div&gt;" style="rounded=0;whiteSpace=wrap;html=1;" vertex="1" parent="1">
          <mxGeometry x="-20" y="60" width="190" height="60" as="geometry" />
        </mxCell>
        <mxCell id="3dXfLGT3kzOmMEB1B4s6-13" style="edgeStyle=orthogonalEdgeStyle;rounded=0;orthogonalLoop=1;jettySize=auto;html=1;" edge="1" parent="1" source="3dXfLGT3kzOmMEB1B4s6-12" target="3dXfLGT3kzOmMEB1B4s6-10">
          <mxGeometry relative="1" as="geometry" />
        </mxCell>
        <mxCell id="3dXfLGT3kzOmMEB1B4s6-17" style="edgeStyle=orthogonalEdgeStyle;rounded=0;orthogonalLoop=1;jettySize=auto;html=1;" edge="1" parent="1" source="3dXfLGT3kzOmMEB1B4s6-12" target="3dXfLGT3kzOmMEB1B4s6-16">
          <mxGeometry relative="1" as="geometry" />
        </mxCell>
        <mxCell id="3dXfLGT3kzOmMEB1B4s6-12" value="&lt;div style=&quot;background-color: rgb(255, 255, 255); font-family: Menlo, Monaco, &amp;quot;Courier New&amp;quot;, monospace; line-height: 18px;&quot;&gt;Sequencer::Start&lt;/div&gt;" style="rounded=0;whiteSpace=wrap;html=1;" vertex="1" parent="1">
          <mxGeometry x="-260" y="-50" width="190" height="60" as="geometry" />
        </mxCell>
        <mxCell id="3dXfLGT3kzOmMEB1B4s6-18" style="edgeStyle=orthogonalEdgeStyle;rounded=0;orthogonalLoop=1;jettySize=auto;html=1;" edge="1" parent="1" source="3dXfLGT3kzOmMEB1B4s6-16" target="3dXfLGT3kzOmMEB1B4s6-11">
          <mxGeometry relative="1" as="geometry" />
        </mxCell>
        <mxCell id="3dXfLGT3kzOmMEB1B4s6-16" value="&lt;div style=&quot;background-color: rgb(255, 255, 255); font-family: Menlo, Monaco, &amp;quot;Courier New&amp;quot;, monospace; line-height: 18px;&quot;&gt;Sequencer::bootstrap&lt;/div&gt;" style="rounded=0;whiteSpace=wrap;html=1;" vertex="1" parent="1">
          <mxGeometry x="-20" y="-50" width="190" height="60" as="geometry" />
        </mxCell>
        <mxCell id="3dXfLGT3kzOmMEB1B4s6-21" value="&lt;div style=&quot;background-color: rgb(255, 255, 255); font-family: Menlo, Monaco, &amp;quot;Courier New&amp;quot;, monospace; line-height: 18px;&quot;&gt;&lt;font color=&quot;#ff6666&quot;&gt;updateMerkleTree&lt;/font&gt;&lt;/div&gt;&lt;div style=&quot;background-color: rgb(255, 255, 255); font-family: Menlo, Monaco, &amp;quot;Courier New&amp;quot;, monospace; line-height: 18px;&quot;&gt;&lt;font color=&quot;#ff6666&quot;&gt;false&lt;/font&gt;&lt;/div&gt;" style="text;html=1;strokeColor=none;fillColor=none;align=center;verticalAlign=middle;whiteSpace=wrap;rounded=0;" vertex="1" parent="1">
          <mxGeometry x="130" y="370" width="140" height="30" as="geometry" />
        </mxCell>
        <mxCell id="3dXfLGT3kzOmMEB1B4s6-30" style="edgeStyle=orthogonalEdgeStyle;rounded=0;orthogonalLoop=1;jettySize=auto;html=1;" edge="1" parent="1" source="3dXfLGT3kzOmMEB1B4s6-22" target="3dXfLGT3kzOmMEB1B4s6-9">
          <mxGeometry relative="1" as="geometry" />
        </mxCell>
        <mxCell id="3dXfLGT3kzOmMEB1B4s6-22" value="&lt;div style=&quot;background-color: rgb(255, 255, 255); font-family: Menlo, Monaco, &amp;quot;Courier New&amp;quot;, monospace; line-height: 18px;&quot;&gt;ClientSynchronizer::processBlockRange&lt;/div&gt;" style="rounded=0;whiteSpace=wrap;html=1;" vertex="1" parent="1">
          <mxGeometry x="224" y="100" width="306" height="60" as="geometry" />
        </mxCell>
        <mxCell id="3dXfLGT3kzOmMEB1B4s6-29" style="edgeStyle=orthogonalEdgeStyle;rounded=0;orthogonalLoop=1;jettySize=auto;html=1;" edge="1" parent="1" source="3dXfLGT3kzOmMEB1B4s6-23" target="3dXfLGT3kzOmMEB1B4s6-22">
          <mxGeometry relative="1" as="geometry" />
        </mxCell>
        <mxCell id="3dXfLGT3kzOmMEB1B4s6-23" value="&lt;div style=&quot;background-color: rgb(255, 255, 255); font-family: Menlo, Monaco, &amp;quot;Courier New&amp;quot;, monospace; line-height: 18px;&quot;&gt;ClientSynchronizer::syncBlocks&lt;/div&gt;" style="rounded=0;whiteSpace=wrap;html=1;" vertex="1" parent="1">
          <mxGeometry x="224" y="20" width="306" height="60" as="geometry" />
        </mxCell>
        <mxCell id="3dXfLGT3kzOmMEB1B4s6-27" style="edgeStyle=orthogonalEdgeStyle;rounded=0;orthogonalLoop=1;jettySize=auto;html=1;" edge="1" parent="1" source="3dXfLGT3kzOmMEB1B4s6-24" target="3dXfLGT3kzOmMEB1B4s6-23">
          <mxGeometry relative="1" as="geometry" />
        </mxCell>
        <mxCell id="3dXfLGT3kzOmMEB1B4s6-24" value="&lt;div style=&quot;background-color: rgb(255, 255, 255); font-family: Menlo, Monaco, &amp;quot;Courier New&amp;quot;, monospace; line-height: 18px;&quot;&gt;ClientSynchronizer::Sync&lt;/div&gt;" style="rounded=0;whiteSpace=wrap;html=1;" vertex="1" parent="1">
          <mxGeometry x="224" y="-60" width="306" height="60" as="geometry" />
        </mxCell>
        <mxCell id="3dXfLGT3kzOmMEB1B4s6-26" style="edgeStyle=orthogonalEdgeStyle;rounded=0;orthogonalLoop=1;jettySize=auto;html=1;" edge="1" parent="1" source="3dXfLGT3kzOmMEB1B4s6-25" target="3dXfLGT3kzOmMEB1B4s6-24">
          <mxGeometry relative="1" as="geometry" />
        </mxCell>
        <mxCell id="3dXfLGT3kzOmMEB1B4s6-25" value="&lt;div style=&quot;background-color: rgb(255, 255, 255); font-family: Menlo, Monaco, &amp;quot;Courier New&amp;quot;, monospace; line-height: 18px;&quot;&gt;&lt;div style=&quot;line-height: 18px;&quot;&gt;main::runSynchronizer&lt;/div&gt;&lt;/div&gt;" style="rounded=0;whiteSpace=wrap;html=1;" vertex="1" parent="1">
          <mxGeometry x="224" y="-140" width="306" height="60" as="geometry" />
        </mxCell>
        <mxCell id="3dXfLGT3kzOmMEB1B4s6-47" style="edgeStyle=orthogonalEdgeStyle;rounded=0;orthogonalLoop=1;jettySize=auto;html=1;entryX=0;entryY=0.5;entryDx=0;entryDy=0;" edge="1" parent="1" source="3dXfLGT3kzOmMEB1B4s6-32" target="3dXfLGT3kzOmMEB1B4s6-1">
          <mxGeometry relative="1" as="geometry" />
        </mxCell>
        <mxCell id="3dXfLGT3kzOmMEB1B4s6-32" value="&lt;div style=&quot;background-color: rgb(255, 255, 255); font-family: Menlo, Monaco, &amp;quot;Courier New&amp;quot;, monospace; line-height: 18px;&quot;&gt;&lt;div style=&quot;line-height: 18px;&quot;&gt;finalizer::processTransaction&lt;/div&gt;&lt;/div&gt;" style="rounded=0;whiteSpace=wrap;html=1;" vertex="1" parent="1">
          <mxGeometry x="-70" y="480" width="250" height="60" as="geometry" />
        </mxCell>
        <mxCell id="3dXfLGT3kzOmMEB1B4s6-48" style="edgeStyle=orthogonalEdgeStyle;rounded=0;orthogonalLoop=1;jettySize=auto;html=1;entryX=0;entryY=0.5;entryDx=0;entryDy=0;" edge="1" parent="1" source="3dXfLGT3kzOmMEB1B4s6-33" target="3dXfLGT3kzOmMEB1B4s6-1">
          <mxGeometry relative="1" as="geometry" />
        </mxCell>
        <mxCell id="3dXfLGT3kzOmMEB1B4s6-33" value="&lt;div style=&quot;background-color: rgb(255, 255, 255); font-family: Menlo, Monaco, &amp;quot;Courier New&amp;quot;, monospace; line-height: 18px;&quot;&gt;&lt;div style=&quot;line-height: 18px;&quot;&gt;finalizer::reprocessFullBatch&lt;/div&gt;&lt;/div&gt;" style="rounded=0;whiteSpace=wrap;html=1;" vertex="1" parent="1">
          <mxGeometry x="-70" y="590" width="250" height="60" as="geometry" />
        </mxCell>
        <mxCell id="3dXfLGT3kzOmMEB1B4s6-37" style="edgeStyle=orthogonalEdgeStyle;rounded=0;orthogonalLoop=1;jettySize=auto;html=1;entryX=0;entryY=0.5;entryDx=0;entryDy=0;" edge="1" parent="1" source="3dXfLGT3kzOmMEB1B4s6-34" target="3dXfLGT3kzOmMEB1B4s6-32">
          <mxGeometry relative="1" as="geometry" />
        </mxCell>
        <mxCell id="3dXfLGT3kzOmMEB1B4s6-41" style="edgeStyle=orthogonalEdgeStyle;rounded=0;orthogonalLoop=1;jettySize=auto;html=1;" edge="1" parent="1" source="3dXfLGT3kzOmMEB1B4s6-34" target="3dXfLGT3kzOmMEB1B4s6-39">
          <mxGeometry relative="1" as="geometry" />
        </mxCell>
        <mxCell id="3dXfLGT3kzOmMEB1B4s6-34" value="&lt;div style=&quot;background-color: rgb(255, 255, 255); font-family: Menlo, Monaco, &amp;quot;Courier New&amp;quot;, monospace; line-height: 18px;&quot;&gt;&lt;div style=&quot;line-height: 18px;&quot;&gt;finalizer::finalizeBatches&lt;/div&gt;&lt;/div&gt;" style="rounded=0;whiteSpace=wrap;html=1;" vertex="1" parent="1">
          <mxGeometry x="-713" y="480" width="250" height="60" as="geometry" />
        </mxCell>
        <mxCell id="3dXfLGT3kzOmMEB1B4s6-36" style="edgeStyle=orthogonalEdgeStyle;rounded=0;orthogonalLoop=1;jettySize=auto;html=1;entryX=0;entryY=0.5;entryDx=0;entryDy=0;" edge="1" parent="1" source="3dXfLGT3kzOmMEB1B4s6-35" target="3dXfLGT3kzOmMEB1B4s6-33">
          <mxGeometry relative="1" as="geometry" />
        </mxCell>
        <mxCell id="3dXfLGT3kzOmMEB1B4s6-38" style="edgeStyle=orthogonalEdgeStyle;rounded=0;orthogonalLoop=1;jettySize=auto;html=1;entryX=0;entryY=0.5;entryDx=0;entryDy=0;" edge="1" parent="1" source="3dXfLGT3kzOmMEB1B4s6-35" target="3dXfLGT3kzOmMEB1B4s6-32">
          <mxGeometry relative="1" as="geometry" />
        </mxCell>
        <mxCell id="3dXfLGT3kzOmMEB1B4s6-35" value="&lt;div style=&quot;background-color: rgb(255, 255, 255); font-family: Menlo, Monaco, &amp;quot;Courier New&amp;quot;, monospace; line-height: 18px;&quot;&gt;&lt;div style=&quot;line-height: 18px;&quot;&gt;finalizer::newWIPBatch&lt;/div&gt;&lt;/div&gt;" style="rounded=0;whiteSpace=wrap;html=1;" vertex="1" parent="1">
          <mxGeometry x="-413" y="570" width="250" height="60" as="geometry" />
        </mxCell>
        <mxCell id="3dXfLGT3kzOmMEB1B4s6-40" style="edgeStyle=orthogonalEdgeStyle;rounded=0;orthogonalLoop=1;jettySize=auto;html=1;entryX=0;entryY=0.5;entryDx=0;entryDy=0;" edge="1" parent="1" source="3dXfLGT3kzOmMEB1B4s6-39" target="3dXfLGT3kzOmMEB1B4s6-35">
          <mxGeometry relative="1" as="geometry" />
        </mxCell>
        <mxCell id="3dXfLGT3kzOmMEB1B4s6-39" value="&lt;div style=&quot;background-color: rgb(255, 255, 255); font-family: Menlo, Monaco, &amp;quot;Courier New&amp;quot;, monospace; line-height: 18px;&quot;&gt;&lt;div style=&quot;line-height: 18px;&quot;&gt;finalizer::finalizeBatch&lt;/div&gt;&lt;/div&gt;" style="rounded=0;whiteSpace=wrap;html=1;" vertex="1" parent="1">
          <mxGeometry x="-713" y="570" width="250" height="60" as="geometry" />
        </mxCell>
        <mxCell id="3dXfLGT3kzOmMEB1B4s6-43" style="edgeStyle=orthogonalEdgeStyle;rounded=0;orthogonalLoop=1;jettySize=auto;html=1;" edge="1" parent="1" source="3dXfLGT3kzOmMEB1B4s6-42" target="3dXfLGT3kzOmMEB1B4s6-34">
          <mxGeometry relative="1" as="geometry" />
        </mxCell>
        <mxCell id="3dXfLGT3kzOmMEB1B4s6-42" value="&lt;div style=&quot;background-color: rgb(255, 255, 255); font-family: Menlo, Monaco, &amp;quot;Courier New&amp;quot;, monospace; line-height: 18px;&quot;&gt;&lt;div style=&quot;line-height: 18px;&quot;&gt;finalizer::Start&lt;/div&gt;&lt;/div&gt;" style="rounded=0;whiteSpace=wrap;html=1;" vertex="1" parent="1">
          <mxGeometry x="-713" y="390" width="250" height="60" as="geometry" />
        </mxCell>
        <mxCell id="3dXfLGT3kzOmMEB1B4s6-44" value="&lt;div style=&quot;background-color: rgb(255, 255, 255); font-family: Menlo, Monaco, &amp;quot;Courier New&amp;quot;, monospace; line-height: 18px;&quot;&gt;&lt;i&gt;&lt;font color=&quot;#67ab9f&quot;&gt;updateMerkleTree&lt;/font&gt;&lt;/i&gt;&lt;/div&gt;&lt;div style=&quot;background-color: rgb(255, 255, 255); font-family: Menlo, Monaco, &amp;quot;Courier New&amp;quot;, monospace; line-height: 18px;&quot;&gt;&lt;i&gt;&lt;font color=&quot;#67ab9f&quot;&gt;true&lt;/font&gt;&lt;/i&gt;&lt;/div&gt;" style="text;html=1;strokeColor=none;fillColor=none;align=center;verticalAlign=middle;whiteSpace=wrap;rounded=0;" vertex="1" parent="1">
          <mxGeometry x="-10" y="530" width="140" height="30" as="geometry" />
        </mxCell>
        <mxCell id="3dXfLGT3kzOmMEB1B4s6-46" value="&lt;div style=&quot;background-color: rgb(255, 255, 255); font-family: Menlo, Monaco, &amp;quot;Courier New&amp;quot;, monospace; line-height: 18px;&quot;&gt;&lt;i&gt;&lt;font color=&quot;#ff6666&quot;&gt;updateMerkleTree&lt;/font&gt;&lt;/i&gt;&lt;/div&gt;&lt;div style=&quot;background-color: rgb(255, 255, 255); font-family: Menlo, Monaco, &amp;quot;Courier New&amp;quot;, monospace; line-height: 18px;&quot;&gt;&lt;i&gt;&lt;font color=&quot;#ff6666&quot;&gt;false&lt;/font&gt;&lt;/i&gt;&lt;/div&gt;" style="text;html=1;strokeColor=none;fillColor=none;align=center;verticalAlign=middle;whiteSpace=wrap;rounded=0;" vertex="1" parent="1">
          <mxGeometry x="-10" y="640" width="140" height="30" as="geometry" />
        </mxCell>
        <mxCell id="3dXfLGT3kzOmMEB1B4s6-49" value="&lt;div style=&quot;background-color: rgb(255, 255, 255); font-family: Menlo, Monaco, &amp;quot;Courier New&amp;quot;, monospace; line-height: 18px;&quot;&gt;&lt;div style=&quot;line-height: 18px;&quot;&gt;executorClient.ProcessBatch&lt;/div&gt;&lt;/div&gt;" style="rounded=0;whiteSpace=wrap;html=1;" vertex="1" parent="1">
          <mxGeometry x="480" y="530" width="230" height="60" as="geometry" />
        </mxCell>
        <mxCell id="3dXfLGT3kzOmMEB1B4s6-54" style="edgeStyle=orthogonalEdgeStyle;rounded=0;orthogonalLoop=1;jettySize=auto;html=1;entryX=0;entryY=0.5;entryDx=0;entryDy=0;" edge="1" parent="1" source="3dXfLGT3kzOmMEB1B4s6-53" target="3dXfLGT3kzOmMEB1B4s6-1">
          <mxGeometry relative="1" as="geometry" />
        </mxCell>
        <mxCell id="3dXfLGT3kzOmMEB1B4s6-53" value="&lt;div style=&quot;background-color: rgb(255, 255, 255); font-family: Menlo, Monaco, &amp;quot;Courier New&amp;quot;, monospace; line-height: 18px;&quot;&gt;&lt;div style=&quot;line-height: 18px;&quot;&gt;ClientSynchronizer::processAndStoreTxs&lt;/div&gt;&lt;/div&gt;" style="rounded=0;whiteSpace=wrap;html=1;" vertex="1" parent="1">
          <mxGeometry x="-105" y="790" width="290" height="60" as="geometry" />
        </mxCell>
        <mxCell id="3dXfLGT3kzOmMEB1B4s6-56" value="&lt;div style=&quot;background-color: rgb(255, 255, 255); font-family: Menlo, Monaco, &amp;quot;Courier New&amp;quot;, monospace; line-height: 18px;&quot;&gt;&lt;i&gt;&lt;font color=&quot;#67ab9f&quot;&gt;updateMerkleTree&lt;/font&gt;&lt;/i&gt;&lt;/div&gt;&lt;div style=&quot;background-color: rgb(255, 255, 255); font-family: Menlo, Monaco, &amp;quot;Courier New&amp;quot;, monospace; line-height: 18px;&quot;&gt;&lt;i&gt;&lt;font color=&quot;#67ab9f&quot;&gt;true&lt;/font&gt;&lt;/i&gt;&lt;/div&gt;" style="text;html=1;strokeColor=none;fillColor=none;align=center;verticalAlign=middle;whiteSpace=wrap;rounded=0;" vertex="1" parent="1">
          <mxGeometry x="-30" y="840" width="140" height="30" as="geometry" />
        </mxCell>
        <mxCell id="3dXfLGT3kzOmMEB1B4s6-62" style="edgeStyle=orthogonalEdgeStyle;rounded=0;orthogonalLoop=1;jettySize=auto;html=1;" edge="1" parent="1" source="3dXfLGT3kzOmMEB1B4s6-57" target="3dXfLGT3kzOmMEB1B4s6-53">
          <mxGeometry relative="1" as="geometry" />
        </mxCell>
        <mxCell id="3dXfLGT3kzOmMEB1B4s6-57" value="&lt;div style=&quot;background-color: rgb(255, 255, 255); font-family: Menlo, Monaco, &amp;quot;Courier New&amp;quot;, monospace; line-height: 18px;&quot;&gt;&lt;div style=&quot;line-height: 18px;&quot;&gt;ClientSynchronizer::processTrustedBatch&lt;/div&gt;&lt;/div&gt;" style="rounded=0;whiteSpace=wrap;html=1;" vertex="1" parent="1">
          <mxGeometry x="-433" y="790" width="290" height="60" as="geometry" />
        </mxCell>
        <mxCell id="3dXfLGT3kzOmMEB1B4s6-61" style="edgeStyle=orthogonalEdgeStyle;rounded=0;orthogonalLoop=1;jettySize=auto;html=1;entryX=0;entryY=0.5;entryDx=0;entryDy=0;" edge="1" parent="1" source="3dXfLGT3kzOmMEB1B4s6-58" target="3dXfLGT3kzOmMEB1B4s6-57">
          <mxGeometry relative="1" as="geometry" />
        </mxCell>
        <mxCell id="3dXfLGT3kzOmMEB1B4s6-58" value="&lt;div style=&quot;background-color: rgb(255, 255, 255); font-family: Menlo, Monaco, &amp;quot;Courier New&amp;quot;, monospace; line-height: 18px;&quot;&gt;&lt;div style=&quot;line-height: 18px;&quot;&gt;ClientSynchronizer::syncTrustedState&lt;/div&gt;&lt;/div&gt;" style="rounded=0;whiteSpace=wrap;html=1;" vertex="1" parent="1">
          <mxGeometry x="-753" y="790" width="290" height="60" as="geometry" />
        </mxCell>
        <mxCell id="3dXfLGT3kzOmMEB1B4s6-60" style="edgeStyle=orthogonalEdgeStyle;rounded=0;orthogonalLoop=1;jettySize=auto;html=1;entryX=0;entryY=0.5;entryDx=0;entryDy=0;" edge="1" parent="1" source="3dXfLGT3kzOmMEB1B4s6-59" target="3dXfLGT3kzOmMEB1B4s6-58">
          <mxGeometry relative="1" as="geometry" />
        </mxCell>
        <mxCell id="3dXfLGT3kzOmMEB1B4s6-59" value="&lt;div style=&quot;background-color: rgb(255, 255, 255); font-family: Menlo, Monaco, &amp;quot;Courier New&amp;quot;, monospace; line-height: 18px;&quot;&gt;&lt;div style=&quot;line-height: 18px;&quot;&gt;ClientSynchronizer::Sync&lt;/div&gt;&lt;/div&gt;" style="rounded=0;whiteSpace=wrap;html=1;" vertex="1" parent="1">
          <mxGeometry x="-990" y="790" width="200" height="60" as="geometry" />
        </mxCell>
        <mxCell id="3dXfLGT3kzOmMEB1B4s6-70" style="edgeStyle=orthogonalEdgeStyle;rounded=0;orthogonalLoop=1;jettySize=auto;html=1;entryX=0.5;entryY=1;entryDx=0;entryDy=0;" edge="1" parent="1" source="3dXfLGT3kzOmMEB1B4s6-68" target="3dXfLGT3kzOmMEB1B4s6-4">
          <mxGeometry relative="1" as="geometry" />
        </mxCell>
        <mxCell id="3dXfLGT3kzOmMEB1B4s6-68" value="&lt;div style=&quot;background-color: rgb(255, 255, 255); font-family: Menlo, Monaco, &amp;quot;Courier New&amp;quot;, monospace; line-height: 18px;&quot;&gt;State::processBatch&lt;/div&gt;" style="rounded=0;whiteSpace=wrap;html=1;" vertex="1" parent="1">
          <mxGeometry x="470" y="860" width="250" height="60" as="geometry" />
        </mxCell>
        <mxCell id="3dXfLGT3kzOmMEB1B4s6-73" style="edgeStyle=orthogonalEdgeStyle;rounded=0;orthogonalLoop=1;jettySize=auto;html=1;" edge="1" parent="1" source="3dXfLGT3kzOmMEB1B4s6-71" target="3dXfLGT3kzOmMEB1B4s6-68">
          <mxGeometry relative="1" as="geometry" />
        </mxCell>
        <mxCell id="3dXfLGT3kzOmMEB1B4s6-71" value="&lt;div style=&quot;background-color: rgb(255, 255, 255); font-family: Menlo, Monaco, &amp;quot;Courier New&amp;quot;, monospace; line-height: 18px;&quot;&gt;State::ProcessSequencerBatch&lt;/div&gt;" style="rounded=0;whiteSpace=wrap;html=1;" vertex="1" parent="1">
          <mxGeometry x="360" y="980" width="250" height="60" as="geometry" />
        </mxCell>
        <mxCell id="3dXfLGT3kzOmMEB1B4s6-74" style="edgeStyle=orthogonalEdgeStyle;rounded=0;orthogonalLoop=1;jettySize=auto;html=1;entryX=0.5;entryY=1;entryDx=0;entryDy=0;" edge="1" parent="1" source="3dXfLGT3kzOmMEB1B4s6-72" target="3dXfLGT3kzOmMEB1B4s6-68">
          <mxGeometry relative="1" as="geometry">
            <Array as="points">
              <mxPoint x="925" y="950" />
              <mxPoint x="595" y="950" />
            </Array>
          </mxGeometry>
        </mxCell>
        <mxCell id="3dXfLGT3kzOmMEB1B4s6-72" value="&lt;div style=&quot;background-color: rgb(255, 255, 255); font-family: Menlo, Monaco, &amp;quot;Courier New&amp;quot;, monospace; line-height: 18px;&quot;&gt;State::ProcessAndStoreClosedBatch&lt;/div&gt;" style="rounded=0;whiteSpace=wrap;html=1;" vertex="1" parent="1">
          <mxGeometry x="660" y="970" width="250" height="60" as="geometry" />
        </mxCell>
        <mxCell id="3dXfLGT3kzOmMEB1B4s6-75" value="&lt;div style=&quot;background-color: rgb(255, 255, 255); font-family: Menlo, Monaco, &amp;quot;Courier New&amp;quot;, monospace; line-height: 18px;&quot;&gt;ClientSynchronizer::processSequenceBatches&lt;/div&gt;" style="rounded=0;whiteSpace=wrap;html=1;" vertex="1" parent="1">
          <mxGeometry x="305" y="1130" width="340" height="60" as="geometry" />
        </mxCell>
        <mxCell id="3dXfLGT3kzOmMEB1B4s6-77" value="&lt;div style=&quot;background-color: rgb(255, 255, 255); font-family: Menlo, Monaco, &amp;quot;Courier New&amp;quot;, monospace; line-height: 18px;&quot;&gt;ClientSynchronizer::processSequenceForceBatch&lt;/div&gt;" style="rounded=0;whiteSpace=wrap;html=1;" vertex="1" parent="1">
          <mxGeometry x="670" y="1130" width="340" height="60" as="geometry" />
        </mxCell>
        <mxCell id="3dXfLGT3kzOmMEB1B4s6-80" style="edgeStyle=orthogonalEdgeStyle;rounded=0;orthogonalLoop=1;jettySize=auto;html=1;entryX=0.5;entryY=1;entryDx=0;entryDy=0;" edge="1" parent="1" source="3dXfLGT3kzOmMEB1B4s6-79" target="3dXfLGT3kzOmMEB1B4s6-75">
          <mxGeometry relative="1" as="geometry" />
        </mxCell>
        <mxCell id="3dXfLGT3kzOmMEB1B4s6-81" style="edgeStyle=orthogonalEdgeStyle;rounded=0;orthogonalLoop=1;jettySize=auto;html=1;entryX=0.5;entryY=1;entryDx=0;entryDy=0;" edge="1" parent="1" source="3dXfLGT3kzOmMEB1B4s6-79" target="3dXfLGT3kzOmMEB1B4s6-77">
          <mxGeometry relative="1" as="geometry" />
        </mxCell>
        <mxCell id="3dXfLGT3kzOmMEB1B4s6-79" value="&lt;div style=&quot;background-color: rgb(255, 255, 255); font-family: Menlo, Monaco, &amp;quot;Courier New&amp;quot;, monospace; line-height: 18px;&quot;&gt;ClientSynchronizer::processBlockRange&lt;/div&gt;" style="rounded=0;whiteSpace=wrap;html=1;" vertex="1" parent="1">
          <mxGeometry x="469" y="1240" width="340" height="60" as="geometry" />
        </mxCell>
        <mxCell id="3dXfLGT3kzOmMEB1B4s6-98" style="edgeStyle=orthogonalEdgeStyle;rounded=0;orthogonalLoop=1;jettySize=auto;html=1;" edge="1" parent="1" source="3dXfLGT3kzOmMEB1B4s6-89" target="3dXfLGT3kzOmMEB1B4s6-5">
          <mxGeometry relative="1" as="geometry" />
        </mxCell>
        <mxCell id="3dXfLGT3kzOmMEB1B4s6-89" value="&lt;div style=&quot;background-color: rgb(255, 255, 255); font-family: Menlo, Monaco, &amp;quot;Courier New&amp;quot;, monospace; line-height: 18px;&quot;&gt;DebugEndpoints::buildTraceTransaction&lt;/div&gt;" style="rounded=0;whiteSpace=wrap;html=1;" vertex="1" parent="1">
          <mxGeometry x="660" y="240" width="270" height="60" as="geometry" />
        </mxCell>
        <mxCell id="3dXfLGT3kzOmMEB1B4s6-100" style="edgeStyle=orthogonalEdgeStyle;rounded=0;orthogonalLoop=1;jettySize=auto;html=1;" edge="1" parent="1" source="3dXfLGT3kzOmMEB1B4s6-90" target="3dXfLGT3kzOmMEB1B4s6-89">
          <mxGeometry relative="1" as="geometry" />
        </mxCell>
        <mxCell id="3dXfLGT3kzOmMEB1B4s6-90" value="&lt;div style=&quot;background-color: rgb(255, 255, 255); font-family: Menlo, Monaco, &amp;quot;Courier New&amp;quot;, monospace; line-height: 18px;&quot;&gt;DebugEndpoints::TraceTransaction&lt;/div&gt;" style="rounded=0;whiteSpace=wrap;html=1;" vertex="1" parent="1">
          <mxGeometry x="557" y="60" width="270" height="60" as="geometry" />
        </mxCell>
        <mxCell id="3dXfLGT3kzOmMEB1B4s6-97" style="edgeStyle=orthogonalEdgeStyle;rounded=0;orthogonalLoop=1;jettySize=auto;html=1;entryX=1;entryY=0.5;entryDx=0;entryDy=0;" edge="1" parent="1" source="3dXfLGT3kzOmMEB1B4s6-91" target="3dXfLGT3kzOmMEB1B4s6-89">
          <mxGeometry relative="1" as="geometry" />
        </mxCell>
        <mxCell id="3dXfLGT3kzOmMEB1B4s6-91" value="&lt;div style=&quot;background-color: rgb(255, 255, 255); font-family: Menlo, Monaco, &amp;quot;Courier New&amp;quot;, monospace; line-height: 18px;&quot;&gt;DebugEndpoints::buildTraceBlock&lt;/div&gt;" style="rounded=0;whiteSpace=wrap;html=1;" vertex="1" parent="1">
          <mxGeometry x="880" y="160" width="270" height="60" as="geometry" />
        </mxCell>
        <mxCell id="3dXfLGT3kzOmMEB1B4s6-95" style="edgeStyle=orthogonalEdgeStyle;rounded=0;orthogonalLoop=1;jettySize=auto;html=1;entryX=0.5;entryY=0;entryDx=0;entryDy=0;" edge="1" parent="1" source="3dXfLGT3kzOmMEB1B4s6-92" target="3dXfLGT3kzOmMEB1B4s6-91">
          <mxGeometry relative="1" as="geometry" />
        </mxCell>
        <mxCell id="3dXfLGT3kzOmMEB1B4s6-92" value="&lt;div style=&quot;background-color: rgb(255, 255, 255); font-family: Menlo, Monaco, &amp;quot;Courier New&amp;quot;, monospace; line-height: 18px;&quot;&gt;DebugEndpoints::TraceBlockByNumber&lt;/div&gt;" style="rounded=0;whiteSpace=wrap;html=1;" vertex="1" parent="1">
          <mxGeometry x="840" y="60" width="270" height="60" as="geometry" />
        </mxCell>
        <mxCell id="3dXfLGT3kzOmMEB1B4s6-94" style="edgeStyle=orthogonalEdgeStyle;rounded=0;orthogonalLoop=1;jettySize=auto;html=1;" edge="1" parent="1" source="3dXfLGT3kzOmMEB1B4s6-93" target="3dXfLGT3kzOmMEB1B4s6-91">
          <mxGeometry relative="1" as="geometry" />
        </mxCell>
        <mxCell id="3dXfLGT3kzOmMEB1B4s6-93" value="&lt;div style=&quot;background-color: rgb(255, 255, 255); font-family: Menlo, Monaco, &amp;quot;Courier New&amp;quot;, monospace; line-height: 18px;&quot;&gt;DebugEndpoints::TraceBlockByHash&lt;/div&gt;" style="rounded=0;whiteSpace=wrap;html=1;" vertex="1" parent="1">
          <mxGeometry x="1150" y="60" width="270" height="60" as="geometry" />
        </mxCell>
        <mxCell id="3dXfLGT3kzOmMEB1B4s6-103" style="edgeStyle=orthogonalEdgeStyle;rounded=0;orthogonalLoop=1;jettySize=auto;html=1;" edge="1" parent="1" source="3dXfLGT3kzOmMEB1B4s6-101" target="3dXfLGT3kzOmMEB1B4s6-6">
          <mxGeometry relative="1" as="geometry" />
        </mxCell>
        <mxCell id="3dXfLGT3kzOmMEB1B4s6-101" value="&lt;div style=&quot;background-color: rgb(255, 255, 255); font-family: Menlo, Monaco, &amp;quot;Courier New&amp;quot;, monospace; line-height: 18px;&quot;&gt;State::PreProcessTransaction&lt;/div&gt;" style="rounded=0;whiteSpace=wrap;html=1;" vertex="1" parent="1">
          <mxGeometry x="1241" y="555" width="280" height="40" as="geometry" />
        </mxCell>
        <mxCell id="3dXfLGT3kzOmMEB1B4s6-104" style="edgeStyle=orthogonalEdgeStyle;rounded=0;orthogonalLoop=1;jettySize=auto;html=1;entryX=0.5;entryY=0;entryDx=0;entryDy=0;" edge="1" parent="1" source="3dXfLGT3kzOmMEB1B4s6-102" target="3dXfLGT3kzOmMEB1B4s6-6">
          <mxGeometry relative="1" as="geometry" />
        </mxCell>
        <mxCell id="3dXfLGT3kzOmMEB1B4s6-102" value="&lt;div style=&quot;background-color: rgb(255, 255, 255); font-family: Menlo, Monaco, &amp;quot;Courier New&amp;quot;, monospace; line-height: 18px;&quot;&gt;State::ProcessUnsignedTransaction&lt;/div&gt;" style="rounded=0;whiteSpace=wrap;html=1;" vertex="1" parent="1">
          <mxGeometry x="1570" y="555" width="280" height="40" as="geometry" />
        </mxCell>
        <mxCell id="3dXfLGT3kzOmMEB1B4s6-116" style="edgeStyle=orthogonalEdgeStyle;rounded=0;orthogonalLoop=1;jettySize=auto;html=1;" edge="1" parent="1" source="3dXfLGT3kzOmMEB1B4s6-105" target="3dXfLGT3kzOmMEB1B4s6-101">
          <mxGeometry relative="1" as="geometry" />
        </mxCell>
        <mxCell id="3dXfLGT3kzOmMEB1B4s6-105" value="&lt;div style=&quot;background-color: rgb(255, 255, 255); font-family: Menlo, Monaco, &amp;quot;Courier New&amp;quot;, monospace; line-height: 18px;&quot;&gt;Pool::preExecuteTx&lt;/div&gt;" style="rounded=0;whiteSpace=wrap;html=1;" vertex="1" parent="1">
          <mxGeometry x="1291" y="495" width="180" height="30" as="geometry" />
        </mxCell>
        <mxCell id="3dXfLGT3kzOmMEB1B4s6-115" style="edgeStyle=orthogonalEdgeStyle;rounded=0;orthogonalLoop=1;jettySize=auto;html=1;entryX=0.5;entryY=0;entryDx=0;entryDy=0;" edge="1" parent="1" source="3dXfLGT3kzOmMEB1B4s6-106" target="3dXfLGT3kzOmMEB1B4s6-105">
          <mxGeometry relative="1" as="geometry" />
        </mxCell>
        <mxCell id="3dXfLGT3kzOmMEB1B4s6-106" value="&lt;div style=&quot;background-color: rgb(255, 255, 255); font-family: Menlo, Monaco, &amp;quot;Courier New&amp;quot;, monospace; line-height: 18px;&quot;&gt;Pool::StoreTx&lt;/div&gt;" style="rounded=0;whiteSpace=wrap;html=1;" vertex="1" parent="1">
          <mxGeometry x="1291" y="425" width="180" height="30" as="geometry" />
        </mxCell>
        <mxCell id="3dXfLGT3kzOmMEB1B4s6-114" style="edgeStyle=orthogonalEdgeStyle;rounded=0;orthogonalLoop=1;jettySize=auto;html=1;" edge="1" parent="1" source="3dXfLGT3kzOmMEB1B4s6-107" target="3dXfLGT3kzOmMEB1B4s6-106">
          <mxGeometry relative="1" as="geometry" />
        </mxCell>
        <mxCell id="3dXfLGT3kzOmMEB1B4s6-107" value="&lt;div style=&quot;background-color: rgb(255, 255, 255); font-family: Menlo, Monaco, &amp;quot;Courier New&amp;quot;, monospace; line-height: 18px;&quot;&gt;Pool::AddTx&lt;/div&gt;" style="rounded=0;whiteSpace=wrap;html=1;" vertex="1" parent="1">
          <mxGeometry x="1450" y="357.5" width="149" height="25" as="geometry" />
        </mxCell>
        <mxCell id="3dXfLGT3kzOmMEB1B4s6-118" style="edgeStyle=orthogonalEdgeStyle;rounded=0;orthogonalLoop=1;jettySize=auto;html=1;entryX=0.5;entryY=0;entryDx=0;entryDy=0;" edge="1" parent="1" source="3dXfLGT3kzOmMEB1B4s6-108" target="3dXfLGT3kzOmMEB1B4s6-106">
          <mxGeometry relative="1" as="geometry" />
        </mxCell>
        <mxCell id="3dXfLGT3kzOmMEB1B4s6-108" value="&lt;div style=&quot;background-color: rgb(255, 255, 255); font-family: Menlo, Monaco, &amp;quot;Courier New&amp;quot;, monospace; line-height: 18px;&quot;&gt;ClientSynchronizer::reorgPool&lt;/div&gt;" style="rounded=0;whiteSpace=wrap;html=1;" vertex="1" parent="1">
          <mxGeometry x="1129.5" y="350" width="240" height="40" as="geometry" />
        </mxCell>
        <mxCell id="3dXfLGT3kzOmMEB1B4s6-112" value="" style="edgeStyle=orthogonalEdgeStyle;rounded=0;orthogonalLoop=1;jettySize=auto;html=1;" edge="1" parent="1" source="3dXfLGT3kzOmMEB1B4s6-109" target="3dXfLGT3kzOmMEB1B4s6-108">
          <mxGeometry relative="1" as="geometry" />
        </mxCell>
        <mxCell id="3dXfLGT3kzOmMEB1B4s6-109" value="&lt;div style=&quot;background-color: rgb(255, 255, 255); font-family: Menlo, Monaco, &amp;quot;Courier New&amp;quot;, monospace; line-height: 18px;&quot;&gt;ClientSynchronizer::processForkID&lt;/div&gt;" style="rounded=0;whiteSpace=wrap;html=1;" vertex="1" parent="1">
          <mxGeometry x="1120" y="290" width="259" height="30" as="geometry" />
        </mxCell>
        <mxCell id="3dXfLGT3kzOmMEB1B4s6-111" style="edgeStyle=orthogonalEdgeStyle;rounded=0;orthogonalLoop=1;jettySize=auto;html=1;" edge="1" parent="1" source="3dXfLGT3kzOmMEB1B4s6-110" target="3dXfLGT3kzOmMEB1B4s6-109">
          <mxGeometry relative="1" as="geometry" />
        </mxCell>
        <mxCell id="3dXfLGT3kzOmMEB1B4s6-110" value="&lt;div style=&quot;background-color: rgb(255, 255, 255); font-family: Menlo, Monaco, &amp;quot;Courier New&amp;quot;, monospace; line-height: 18px;&quot;&gt;ClientSynchronizer::Sync&lt;/div&gt;" style="rounded=0;whiteSpace=wrap;html=1;" vertex="1" parent="1">
          <mxGeometry x="1144.5" y="230" width="210" height="35" as="geometry" />
        </mxCell>
        <mxCell id="3dXfLGT3kzOmMEB1B4s6-119" style="edgeStyle=orthogonalEdgeStyle;rounded=0;orthogonalLoop=1;jettySize=auto;html=1;" edge="1" parent="1" source="3dXfLGT3kzOmMEB1B4s6-117" target="3dXfLGT3kzOmMEB1B4s6-107">
          <mxGeometry relative="1" as="geometry" />
        </mxCell>
        <mxCell id="3dXfLGT3kzOmMEB1B4s6-117" value="&lt;div style=&quot;background-color: rgb(255, 255, 255); font-family: Menlo, Monaco, &amp;quot;Courier New&amp;quot;, monospace; line-height: 18px;&quot;&gt;EthEndpoints::tryToAddTxToPool&lt;/div&gt;" style="rounded=0;whiteSpace=wrap;html=1;" vertex="1" parent="1">
          <mxGeometry x="1404.5" y="250" width="240" height="40" as="geometry" />
        </mxCell>
        <mxCell id="3dXfLGT3kzOmMEB1B4s6-122" style="edgeStyle=orthogonalEdgeStyle;rounded=0;orthogonalLoop=1;jettySize=auto;html=1;" edge="1" parent="1" source="3dXfLGT3kzOmMEB1B4s6-121" target="3dXfLGT3kzOmMEB1B4s6-117">
          <mxGeometry relative="1" as="geometry" />
        </mxCell>
        <mxCell id="3dXfLGT3kzOmMEB1B4s6-121" value="&lt;div style=&quot;background-color: rgb(255, 255, 255); font-family: Menlo, Monaco, &amp;quot;Courier New&amp;quot;, monospace; line-height: 18px;&quot;&gt;EthEndpoints::SendRawTransaction&lt;/div&gt;" style="rounded=0;whiteSpace=wrap;html=1;" vertex="1" parent="1">
          <mxGeometry x="1404.5" y="180" width="240" height="40" as="geometry" />
        </mxCell>
        <mxCell id="3dXfLGT3kzOmMEB1B4s6-124" style="edgeStyle=orthogonalEdgeStyle;rounded=0;orthogonalLoop=1;jettySize=auto;html=1;" edge="1" parent="1" source="3dXfLGT3kzOmMEB1B4s6-123" target="3dXfLGT3kzOmMEB1B4s6-102">
          <mxGeometry relative="1" as="geometry" />
        </mxCell>
        <mxCell id="3dXfLGT3kzOmMEB1B4s6-123" value="&lt;div style=&quot;background-color: rgb(255, 255, 255); font-family: Menlo, Monaco, &amp;quot;Courier New&amp;quot;, monospace; line-height: 18px;&quot;&gt;EthEndpoints::Call&lt;/div&gt;" style="rounded=0;whiteSpace=wrap;html=1;" vertex="1" parent="1">
          <mxGeometry x="1610" y="465" width="200" height="40" as="geometry" />
        </mxCell>
        <mxCell id="3dXfLGT3kzOmMEB1B4s6-127" style="edgeStyle=orthogonalEdgeStyle;rounded=0;orthogonalLoop=1;jettySize=auto;html=1;" edge="1" parent="1" source="3dXfLGT3kzOmMEB1B4s6-126" target="3dXfLGT3kzOmMEB1B4s6-7">
          <mxGeometry relative="1" as="geometry" />
        </mxCell>
        <mxCell id="3dXfLGT3kzOmMEB1B4s6-126" value="&lt;div style=&quot;background-color: rgb(255, 255, 255); font-family: Menlo, Monaco, &amp;quot;Courier New&amp;quot;, monospace; line-height: 18px;&quot;&gt;EthEndpoints::EstimateGas&lt;/div&gt;" style="rounded=0;whiteSpace=wrap;html=1;" vertex="1" parent="1">
          <mxGeometry x="1224.5" y="750" width="205.5" height="60" as="geometry" />
        </mxCell>
        <mxCell id="3dXfLGT3kzOmMEB1B4s6-129" value="&lt;div style=&quot;background-color: rgb(255, 255, 255); font-family: Menlo, Monaco, &amp;quot;Courier New&amp;quot;, monospace; line-height: 18px;&quot;&gt;&lt;i&gt;&lt;font color=&quot;#ff6666&quot;&gt;updateMerkleTree&lt;/font&gt;&lt;/i&gt;&lt;/div&gt;&lt;div style=&quot;background-color: rgb(255, 255, 255); font-family: Menlo, Monaco, &amp;quot;Courier New&amp;quot;, monospace; line-height: 18px;&quot;&gt;&lt;i&gt;&lt;font color=&quot;#ff6666&quot;&gt;false&lt;/font&gt;&lt;/i&gt;&lt;/div&gt;" style="text;html=1;strokeColor=none;fillColor=none;align=center;verticalAlign=middle;whiteSpace=wrap;rounded=0;" vertex="1" parent="1">
          <mxGeometry x="1257.25" y="900" width="140" height="30" as="geometry" />
        </mxCell>
        <mxCell id="3dXfLGT3kzOmMEB1B4s6-130" value="&lt;div style=&quot;background-color: rgb(255, 255, 255); font-family: Menlo, Monaco, &amp;quot;Courier New&amp;quot;, monospace; line-height: 18px;&quot;&gt;&lt;i&gt;&lt;font color=&quot;#ff6666&quot;&gt;updateMerkleTree&lt;/font&gt;&lt;/i&gt;&lt;/div&gt;&lt;div style=&quot;background-color: rgb(255, 255, 255); font-family: Menlo, Monaco, &amp;quot;Courier New&amp;quot;, monospace; line-height: 18px;&quot;&gt;&lt;i&gt;&lt;font color=&quot;#ff6666&quot;&gt;false&lt;/font&gt;&lt;/i&gt;&lt;/div&gt;" style="text;html=1;strokeColor=none;fillColor=none;align=center;verticalAlign=middle;whiteSpace=wrap;rounded=0;" vertex="1" parent="1">
          <mxGeometry x="1435" y="690" width="140" height="30" as="geometry" />
        </mxCell>
        <mxCell id="3dXfLGT3kzOmMEB1B4s6-131" value="&lt;div style=&quot;background-color: rgb(255, 255, 255); font-family: Menlo, Monaco, &amp;quot;Courier New&amp;quot;, monospace; line-height: 18px;&quot;&gt;&lt;i&gt;&lt;font color=&quot;#67ab9f&quot;&gt;updateMerkleTree&lt;/font&gt;&lt;/i&gt;&lt;/div&gt;&lt;div style=&quot;background-color: rgb(255, 255, 255); font-family: Menlo, Monaco, &amp;quot;Courier New&amp;quot;, monospace; line-height: 18px;&quot;&gt;&lt;i&gt;&lt;font color=&quot;#67ab9f&quot;&gt;true&lt;/font&gt;&lt;/i&gt;&lt;/div&gt;" style="text;html=1;strokeColor=none;fillColor=none;align=center;verticalAlign=middle;whiteSpace=wrap;rounded=0;" vertex="1" parent="1">
          <mxGeometry x="540" y="840" width="140" height="30" as="geometry" />
        </mxCell>
        <mxCell id="3dXfLGT3kzOmMEB1B4s6-132" value="&lt;div style=&quot;background-color: rgb(255, 255, 255); font-family: Menlo, Monaco, &amp;quot;Courier New&amp;quot;, monospace; line-height: 18px;&quot;&gt;&lt;font color=&quot;#ff6666&quot;&gt;updateMerkleTree&lt;/font&gt;&lt;/div&gt;&lt;div style=&quot;background-color: rgb(255, 255, 255); font-family: Menlo, Monaco, &amp;quot;Courier New&amp;quot;, monospace; line-height: 18px;&quot;&gt;&lt;font color=&quot;#ff6666&quot;&gt;false&lt;/font&gt;&lt;/div&gt;" style="text;html=1;strokeColor=none;fillColor=none;align=center;verticalAlign=middle;whiteSpace=wrap;rounded=0;" vertex="1" parent="1">
          <mxGeometry x="725" y="380" width="140" height="30" as="geometry" />
        </mxCell>
      </root>
    </mxGraphModel>
  </diagram>
</mxfile>
